# xmcd
#
# Track frame offsets:
#	150
#	10523
#	23501
#	36475
#	59161
#	75952
#	87656
#	108703
#	131157
#	140368
#	161141
#	176942
#	190717
#
# Disc length: 2742 seconds
#
# Revision: 0
# Processed by: cddbd v1.5.2PL0 Copyright (c) Steve Scherf et al.
# Submitted via: EasyCDDAExtractor 16.0.1.1
#
DISCID=b10ab40d
DTITLE=Various Artist - 40 R&B #1 Hits
DYEAR=2006
DGENRE=R&B
TTITLE0=James Brown - Papa's Got a Brand New Bag
TTITLE1=The Miracles - Shop Around
TTITLE2=Percy Sledge - When A Man Loves A Woman
TTITLE3=Kool and The Gang - Hollywood Swinging
TTITLE4=The Spinners - Rubberband Man
TTITLE5=Sam and Dave - Hold On I'm Comin'
TTITLE6=Teddy Pendergrass - Close The Door
TTITLE7=Dionne Warwick - That's What Friends Are For
TTITLE8=Gladys Knight and The Pips - Every Beat of My Heart
TTITLE9=The Spinners - Could It Be I'm Falling In Love
TTITLE10=Harold Melvin and The Blue Notes - Wake-up Everybody
TTITLE11=Aaron Neville - Tell It Like It Is
TTITLE12=Mary Wells - My Guy
EXTD=
EXTT0=
EXTT1=
EXTT2=
EXTT3=
EXTT4=
EXTT5=
EXTT6=
EXTT7=
EXTT8=
EXTT9=
EXTT10=
EXTT11=
EXTT12=
PLAYORDER=
